<?xml version="1.0" standalone="no"?><!DOCTYPE svg PUBLIC "-//W3C//DTD SVG 1.1//EN" "http://www.w3.org/Graphics/SVG/1.1/DTD/svg11.dtd"><svg t="1690256833721" class="icon" viewBox="0 0 1024 1024" version="1.1" xmlns="http://www.w3.org/2000/svg" p-id="17256" xmlns:xlink="http://www.w3.org/1999/xlink" width="48" height="48"><path d="M512 97.52381c228.912762 0 414.47619 185.563429 414.47619 414.47619s-185.563429 414.47619-414.47619 414.47619S97.52381 740.912762 97.52381 512 283.087238 97.52381 512 97.52381z m0 73.142857C323.486476 170.666667 170.666667 323.486476 170.666667 512s152.81981 341.333333 341.333333 341.333333 341.333333-152.81981 341.333333-341.333333S700.513524 170.666667 512 170.666667z m129.29219 160.304762l51.736381 51.736381L563.687619 512l129.316571 129.29219-51.73638 51.736381L512 563.687619l-129.29219 129.316571-51.736381-51.73638L460.312381 512l-129.316571-129.26781 51.73638-51.73638L512 460.263619l129.26781-129.29219z" p-id="17257" fill="#c80000"></path></svg>